<svg id="Layer_5" enable-background="new 0 0 64 64" height="50" viewBox="0 0 64 64" width="50" xmlns="http://www.w3.org/2000/svg"><g><path d="m58 3h-35.917l-11.616-1.936c-.256-.043-.514-.064-.773-.064-2.589 0-4.694 2.106-4.694 4.694v19.306h-1c-1.654 0-3 1.346-3 3v8c0 1.654 1.346 3 3 3h1v19.306c0 2.588 2.105 4.694 4.694 4.694.259 0 .517-.021.771-.064l11.618-1.936h35.917c2.757 0 5-2.243 5-5v-48c0-2.757-2.243-5-5-5zm-54 34c-.552 0-1-.449-1-1v-8c0-.551.448-1 1-1h1v10zm7-33.82 10 1.667v54.306l-10 1.667zm-4 55.126v-52.612c0-1.244.852-2.283 2-2.592v57.796c-1.129-.315-2-1.354-2-2.592zm54-2.306c0 1.654-1.346 3-3 3h-35v-54h35c1.654 0 3 1.346 3 3z"/><path d="m57 7h-30c-1.103 0-2 .897-2 2v33 12 1c0 1.103.897 2 2 2h1 16 13c1.103 0 2-.897 2-2v-46c0-1.103-.897-2-2-2zm-9 18c-.552 0-1-.449-1-1v-1h4v1c0 .551-.448 1-1 1zm4-4h-20c-.552 0-1-.449-1-1v-11h2v4h18v-4h2v11c0 .551-.448 1-1 1zm-17-12h14v2h-14zm-6 0v11c0 1.654 1.346 3 3 3h13v1c0 1.654 1.346 3 3 3v1c0 .551-.448 1-1 1h-12c-1.654 0-3 1.346-3 3v3c-1.654 0-3 1.346-3 3v1h-1c-.352 0-.686.072-1 .184v-30.184zm16 34h-18v-1c0-.551.448-1 1-1h16c.552 0 1 .449 1 1zm-10-4h-4v-1c0-.551.448-1 1-1h2c.552 0 1 .449 1 1zm-7 16c-.552 0-1-.449-1-1v-9h18v9c0 .551-.448 1-1 1zm18.816 0c.112-.314.184-.648.184-1v-12c0-1.654-1.346-3-3-3h-7v-1c0-1.654-1.346-3-3-3v-3c0-.551.448-1 1-1h12c1.654 0 3-1.346 3-3v-1c1.654 0 3-1.346 3-3v-1.184c1.161-.414 2-1.514 2-2.816v-11h2l.001 46z"/><path d="m52 47c-1.654 0-3 1.346-3 3s1.346 3 3 3 3-1.346 3-3-1.346-3-3-3zm0 4c-.552 0-1-.449-1-1s.448-1 1-1 1 .449 1 1-.448 1-1 1z"/><path d="m52 39c-1.654 0-3 1.346-3 3s1.346 3 3 3 3-1.346 3-3-1.346-3-3-3zm0 4c-.552 0-1-.449-1-1s.448-1 1-1 1 .449 1 1-.448 1-1 1z"/><path d="m29 47h14v2h-14z"/><path d="m29 51h14v2h-14z"/><path d="m33 17h4v2h-4z"/><path d="m47 17h4v2h-4z"/></g></svg>