<svg id="Layer_1" height="50" viewBox="0 0 512 512" width="50" xmlns="http://www.w3.org/2000/svg" data-name="Layer 1">
<path d="m83 373v100c0 15.19 12.46 28 27.64 28h289.78c15.17 0 27.58-12.81 27.58-28v-100z" fill="#585d68"/>
<path d="m391.67 373.16v83.24h-272.28v-83.24z" fill="#6d7486"/><path d="m119 373h30v83h-30z" fill="#5a6170"/>
<path d="m43.11 133.85v89.51h-26.23a5.885 5.885 0 0 1 -5.88-5.89v-77.74a5.877 5.877 0 0 1 5.88-5.88z" fill="#6d7486"/>
<path d="m501 139.73v77.74a5.885 5.885 0 0 1 -5.88 5.89h-27.18v-89.51h27.18a5.877 5.877 0 0 1 5.88 5.88z" fill="#6d7486"/>
<path d="m438.94 11.5h-366.83a30 30 0 0 0 -30 30v302.66a30 30 0 0 0 30 30h366.83c16.57 0 30-18.43 30-35v-297.66a30 30 0 0 0 -30-30z" fill="#4a5160"/>
<rect fill="#6d7486" height="307.2" rx="10" width="373.85" x="68.6" y="39.23"/><path d="m327.89 400.46h33.88v26.63h-33.88z" fill="#f3ce7d"/>
<path d="m176.68 80.83h77.13v62.83h-77.13z" fill="#90c3d3"/><path d="m149.28 400.46h33.88v26.63h-33.88z" fill="#e87187"/>
<path d="m209.55 195.74a22.315 22.315 0 1 1 -22.3 22.31 22.3 22.3 0 0 1 22.3-22.31z" fill="#5fa8ed"/><path d="m268.36 400.46h33.87v26.63h-33.87z" fill="#e87187"/>
<path d="m208.82 400.46h33.88v26.63h-33.88z" fill="#f3ce7d"/><path d="m387.87 90.83v42.83a10 10 0 0 1 -10 10h-46.94v-62.83h46.94a9.991 9.991 0 0 1 10 10z" fill="#90c3d3"/>
<path d="m259.65 201.55h131.72v34.38h-131.72z" fill="#b0b5ca"/><path d="m253.81 80.83h77.12v62.83h-77.12z" fill="#a5e2fb"/>
<path d="m176.68 80.83v62.83h-45.1a10 10 0 0 1 -10-10v-42.83a9.991 9.991 0 0 1 10-10z" fill="#a5e2fb"/>
<path d="m145.36 195.74a22.315 22.315 0 1 1 -22.3 22.31 22.31 22.31 0 0 1 22.3-22.31z" fill="#5fcda4"/>
<path d="m99 336.43v-287.2c0-5.52 4.08-10.23 9.6-10.23h-30c-5.52 0-9.6 4.71-9.6 10.23v287.2a9.31 9.31 0 0 0 9.6 9.57h30a9.31 9.31 0 0 1 -9.6-9.57z" fill="#5a6170"/>
<g fill="#4e5460">
<path d="m398.5 284.056h-33.657a6 6 0 0 1 0-12h33.657a6 6 0 0 1 0 12z"/>
<path d="m349.147 284.056h-230.976a6 6 0 1 1 0-12h230.976a6 6 0 0 1 0 12z"/>
<path d="m398.5 311.555h-19.918a6 6 0 0 1 0-12h19.918a6 6 0 0 1 0 12z"/>
<path d="m354.385 311.555h-15.4a6 6 0 0 1 0-12h15.4a6 6 0 0 1 0 12z"/>
<path d="m314.907 311.555h-196.736a6 6 0 1 1 0-12h196.736a6 6 0 0 1 0 12z"/>
</g>
<path d="m91 73a6 6 0 0 1 -6-6v-2a6 6 0 0 1 12 0v2a6 6 0 0 1 -6 6z" fill="#f4f8fc"/>
<path d="m91 185a6 6 0 0 1 -6-6v-92a6 6 0 0 1 12 0v92a6 6 0 0 1 -6 6z" fill="#f4f8fc"/>
<text fill="#000000" font-size='45' font-family="Verdana" x='34' y='50'>{this.props.name}</text>
<text fill="#000000" font-size='45' font-family="Verdana" x='51' y='490'> {idạhasjkdhas} </text>
</svg>